<mxfile host="app.diagrams.net" modified="2023-06-27T01:01:30.791Z" agent="Mozilla/5.0 (Windows NT 10.0; Win64; x64; rv:109.0) Gecko/20100101 Firefox/114.0" etag="0Dp2eVG0bweYNd7u5db4" version="21.3.4" type="github">
  <diagram id="EVrbKENyEVnjGAG4AELT" name="Page-1">
    <mxGraphModel dx="1434" dy="746" grid="1" gridSize="10" guides="1" tooltips="1" connect="1" arrows="1" fold="1" page="1" pageScale="1" pageWidth="1169" pageHeight="827" math="1" shadow="0">
      <root>
        <mxCell id="0" />
        <mxCell id="1" parent="0" />
        <mxCell id="f9G_BaiLi3q2K68a_gNP-3" style="edgeStyle=orthogonalEdgeStyle;rounded=0;orthogonalLoop=1;jettySize=auto;html=1;" parent="1" source="rsoeOqy-VsgO8BAAmOL_-3" target="rsoeOqy-VsgO8BAAmOL_-4" edge="1">
          <mxGeometry relative="1" as="geometry">
            <Array as="points">
              <mxPoint x="1030" y="275" />
              <mxPoint x="1030" y="275" />
            </Array>
          </mxGeometry>
        </mxCell>
        <mxCell id="rsoeOqy-VsgO8BAAmOL_-3" value="&lt;div&gt;$$\xi_{feature\&amp;nbsp; extractor}$$&lt;/div&gt;" style="shape=trapezoid;perimeter=trapezoidPerimeter;whiteSpace=wrap;html=1;fixedSize=1;rotation=90;horizontal=0;fontSize=20;fillColor=#d5e8d4;strokeColor=#82b366;strokeWidth=3;" parent="1" vertex="1">
          <mxGeometry x="820" y="190" width="86.36" height="169.28" as="geometry" />
        </mxCell>
        <mxCell id="Qng38_FX3BrwguZekm4N-1" style="edgeStyle=orthogonalEdgeStyle;rounded=0;orthogonalLoop=1;jettySize=auto;html=1;" parent="1" source="rsoeOqy-VsgO8BAAmOL_-4" target="rsoeOqy-VsgO8BAAmOL_-5" edge="1">
          <mxGeometry relative="1" as="geometry">
            <Array as="points">
              <mxPoint x="1290" y="308" />
              <mxPoint x="1290" y="308" />
            </Array>
          </mxGeometry>
        </mxCell>
        <mxCell id="rsoeOqy-VsgO8BAAmOL_-4" value="&lt;p style=&quot;line-height: 130%; font-size: 23px;&quot;&gt;&lt;/p&gt;&lt;div style=&quot;font-size: 23px;&quot;&gt;&lt;font style=&quot;font-size: 23px;&quot;&gt;Dynamics&lt;/font&gt;&lt;/div&gt;&lt;div style=&quot;font-size: 23px;&quot;&gt;&lt;font style=&quot;font-size: 23px;&quot;&gt;Engine&lt;/font&gt;&lt;/div&gt;&lt;p style=&quot;font-size: 23px;&quot;&gt;&lt;/p&gt;" style="rounded=1;whiteSpace=wrap;html=1;fillColor=#f5f5f5;strokeColor=#666666;fontColor=#333333;strokeWidth=3;horizontal=1;" parent="1" vertex="1">
          <mxGeometry x="1050" y="190" width="195" height="198.6" as="geometry" />
        </mxCell>
        <mxCell id="2LGTjAn5IBV8_32J_CFB-2" value="" style="edgeStyle=orthogonalEdgeStyle;rounded=0;orthogonalLoop=1;jettySize=auto;html=1;" parent="1" source="rsoeOqy-VsgO8BAAmOL_-5" target="Qng38_FX3BrwguZekm4N-6" edge="1">
          <mxGeometry relative="1" as="geometry" />
        </mxCell>
        <mxCell id="rsoeOqy-VsgO8BAAmOL_-5" value="&lt;div&gt;BEV Generator&lt;/div&gt;" style="shape=trapezoid;perimeter=trapezoidPerimeter;whiteSpace=wrap;html=1;fixedSize=1;fontSize=20;rotation=90;horizontal=0;direction=east;flipV=1;size=27.5;fillColor=#f8cecc;strokeColor=#b85450;strokeWidth=3;" parent="1" vertex="1">
          <mxGeometry x="1360" y="257.09" width="130" height="102.19" as="geometry" />
        </mxCell>
        <mxCell id="wFatvhg8cRB6fwVL0rMG-9" value="" style="edgeStyle=orthogonalEdgeStyle;rounded=0;orthogonalLoop=1;jettySize=auto;html=1;" parent="1" source="rsoeOqy-VsgO8BAAmOL_-14" target="wFatvhg8cRB6fwVL0rMG-8" edge="1">
          <mxGeometry relative="1" as="geometry" />
        </mxCell>
        <mxCell id="rsoeOqy-VsgO8BAAmOL_-14" value="&lt;div&gt;Point Cloud&lt;/div&gt;&lt;div&gt;\(x_t\)&lt;/div&gt;" style="text;html=1;align=center;verticalAlign=middle;resizable=0;points=[];autosize=1;strokeColor=none;fillColor=none;fontSize=20;" parent="1" vertex="1">
          <mxGeometry x="260" y="249.29999999999995" width="130" height="60" as="geometry" />
        </mxCell>
        <mxCell id="f9G_BaiLi3q2K68a_gNP-1" style="edgeStyle=orthogonalEdgeStyle;rounded=0;orthogonalLoop=1;jettySize=auto;html=1;entryX=0.005;entryY=0.705;entryDx=0;entryDy=0;entryPerimeter=0;" parent="1" source="rsoeOqy-VsgO8BAAmOL_-16" target="rsoeOqy-VsgO8BAAmOL_-4" edge="1">
          <mxGeometry relative="1" as="geometry">
            <Array as="points">
              <mxPoint x="980" y="389" />
              <mxPoint x="980" y="330" />
            </Array>
          </mxGeometry>
        </mxCell>
        <mxCell id="rsoeOqy-VsgO8BAAmOL_-16" value="&lt;div&gt;Action&lt;/div&gt;&lt;div&gt;\(a_t\)&lt;/div&gt;" style="text;html=1;align=center;verticalAlign=middle;resizable=0;points=[];autosize=1;strokeColor=none;fillColor=none;fontSize=20;" parent="1" vertex="1">
          <mxGeometry x="285" y="359.28" width="80" height="60" as="geometry" />
        </mxCell>
        <mxCell id="rsoeOqy-VsgO8BAAmOL_-23" value="" style="endArrow=classic;dashed=1;html=1;dashPattern=1 3;strokeWidth=2;rounded=1;fontSize=20;startArrow=none;startFill=0;endFill=1;" parent="1" source="Qng38_FX3BrwguZekm4N-6" target="2mjd-9uhkY1LPrBKcRSL-4" edge="1">
          <mxGeometry width="50" height="50" relative="1" as="geometry">
            <mxPoint x="1865" y="278.18000000000006" as="sourcePoint" />
            <mxPoint x="450" y="260" as="targetPoint" />
            <Array as="points">
              <mxPoint x="1590" y="80" />
              <mxPoint x="670" y="80" />
            </Array>
          </mxGeometry>
        </mxCell>
        <mxCell id="2mjd-9uhkY1LPrBKcRSL-4" value="&lt;div&gt;Bird&#39;s Eye View&lt;br&gt;&lt;/div&gt;&lt;div&gt;\(y_t\)&lt;/div&gt;" style="text;html=1;align=center;verticalAlign=middle;resizable=0;points=[];autosize=1;strokeColor=none;fillColor=none;fontSize=20;" parent="1" vertex="1">
          <mxGeometry x="590" y="249.30000000000004" width="160" height="60" as="geometry" />
        </mxCell>
        <mxCell id="2mjd-9uhkY1LPrBKcRSL-8" value="" style="endArrow=classic;html=1;rounded=0;fontSize=20;entryX=0.559;entryY=1.012;entryDx=0;entryDy=0;entryPerimeter=0;" parent="1" target="rsoeOqy-VsgO8BAAmOL_-3" edge="1">
          <mxGeometry width="50" height="50" relative="1" as="geometry">
            <mxPoint x="740" y="280" as="sourcePoint" />
            <mxPoint x="770" y="280" as="targetPoint" />
          </mxGeometry>
        </mxCell>
        <mxCell id="2mjd-9uhkY1LPrBKcRSL-21" value="&lt;div&gt;\(z^{content}_{t}\)&lt;/div&gt;" style="text;html=1;align=center;verticalAlign=middle;resizable=0;points=[];autosize=1;strokeColor=none;fillColor=none;fontSize=20;" parent="1" vertex="1">
          <mxGeometry x="920" y="232.12999999999997" width="180" height="40" as="geometry" />
        </mxCell>
        <mxCell id="Qng38_FX3BrwguZekm4N-4" value="&lt;div&gt;\(z^{content}_{t+1}\)&lt;/div&gt;" style="text;html=1;align=center;verticalAlign=middle;resizable=0;points=[];autosize=1;strokeColor=none;fillColor=none;fontSize=20;" parent="1" vertex="1">
          <mxGeometry x="1200" y="269.29999999999995" width="200" height="40" as="geometry" />
        </mxCell>
        <mxCell id="Qng38_FX3BrwguZekm4N-6" value="&lt;div&gt;Bird&#39;s Eye View&lt;br&gt;&lt;/div&gt;&lt;div&gt;\(y_{t+1}\)&lt;/div&gt;" style="text;html=1;align=center;verticalAlign=middle;resizable=0;points=[];autosize=1;strokeColor=none;fillColor=none;fontSize=20;" parent="1" vertex="1">
          <mxGeometry x="1510" y="278.18000000000006" width="160" height="60" as="geometry" />
        </mxCell>
        <mxCell id="Qng38_FX3BrwguZekm4N-11" value="" style="curved=1;endArrow=classic;html=1;rounded=0;" parent="1" source="rsoeOqy-VsgO8BAAmOL_-4" target="rsoeOqy-VsgO8BAAmOL_-4" edge="1">
          <mxGeometry width="50" height="50" relative="1" as="geometry">
            <mxPoint x="1137.5" y="490" as="sourcePoint" />
            <mxPoint x="1187.5" y="440" as="targetPoint" />
            <Array as="points">
              <mxPoint x="1170" y="420" />
              <mxPoint x="1130" y="420" />
            </Array>
          </mxGeometry>
        </mxCell>
        <mxCell id="_wXNu056WR2RPecC8ph6-1" value="" style="edgeStyle=orthogonalEdgeStyle;rounded=0;orthogonalLoop=1;jettySize=auto;html=1;" parent="1" source="wFatvhg8cRB6fwVL0rMG-8" target="2mjd-9uhkY1LPrBKcRSL-4" edge="1">
          <mxGeometry relative="1" as="geometry" />
        </mxCell>
        <mxCell id="wFatvhg8cRB6fwVL0rMG-8" value="&lt;p style=&quot;line-height: 130%; font-size: 23px;&quot;&gt;&lt;/p&gt;&lt;div style=&quot;font-size: 23px;&quot;&gt;&lt;font data-darkreader-inline-color=&quot;&quot; style=&quot;font-size: 23px; --darkreader-inline-color: #e8e6e3;&quot; color=&quot;#000000&quot;&gt;3D Pre-processing&lt;br&gt;&lt;/font&gt;&lt;/div&gt;&lt;p style=&quot;font-size: 23px;&quot;&gt;&lt;/p&gt;" style="rounded=1;whiteSpace=wrap;html=1;fillColor=#B1CDF2;strokeColor=#001DBC;fontColor=#000000;strokeWidth=3;horizontal=1;labelBackgroundColor=none;labelBorderColor=none;" parent="1" vertex="1">
          <mxGeometry x="420" y="216.70000000000002" width="150" height="125.19" as="geometry" />
        </mxCell>
      </root>
    </mxGraphModel>
  </diagram>
</mxfile>
